<svg width="45" height="45" viewBox="0 0 45 45" fill="none" xmlns="http://www.w3.org/2000/svg">
<path d="M23.8313 4.29376C23.657 4.11802 23.4496 3.97853 23.2211 3.88334C22.9926 3.78814 22.7475 3.73914 22.5 3.73914C22.2525 3.73914 22.0074 3.78814 21.7789 3.88334C21.5504 3.97853 21.3431 4.11802 21.1688 4.29376L4.29376 21.1688C4.11802 21.3431 3.97853 21.5504 3.88334 21.7789C3.78814 22.0074 3.73914 22.2525 3.73914 22.5C3.73914 22.7475 3.78814 22.9926 3.88334 23.2211C3.97853 23.4496 4.11802 23.657 4.29376 23.8313C4.46896 24.005 4.67674 24.1425 4.90518 24.2358C5.13363 24.3291 5.37825 24.3764 5.62501 24.375H7.50001V37.5C7.50001 38.4946 7.8951 39.4484 8.59836 40.1517C9.30162 40.8549 10.2554 41.25 11.25 41.25H33.75C34.7446 41.25 35.6984 40.8549 36.4017 40.1517C37.1049 39.4484 37.5 38.4946 37.5 37.5V24.375H39.375C39.8723 24.375 40.3492 24.1775 40.7008 23.8258C41.0525 23.4742 41.25 22.9973 41.25 22.5C41.2514 22.2532 41.2041 22.0086 41.1108 21.7802C41.0175 21.5517 40.88 21.344 40.7063 21.1688L23.8313 4.29376ZM11.25 37.5V19.5188L22.5 8.26876L33.75 19.5188V37.5H11.25Z" fill="#33B6FF"/>
</svg>
