<svg width="54" height="51" viewBox="0 0 54 51" fill="none" xmlns="http://www.w3.org/2000/svg">
<path d="M38.0577 0C47.0566 0 53.102 6.06419 53.102 15.0876V35.9124C53.102 44.9358 47.0566 51 38.055 51H15.0443C6.04538 51 0 44.9358 0 35.9124V15.0876C0 6.06419 6.04538 0 15.0443 0H38.0577ZM40.9857 26.9026C38.1395 25.1974 35.9422 27.5921 35.3495 28.3579C34.7781 29.0974 34.2869 29.9132 33.7689 30.7289C32.5034 32.7421 31.0536 35.0632 28.5439 36.4132C24.8968 38.3526 22.1281 36.5658 20.1364 35.2658C19.3888 34.7816 18.6626 34.3237 17.939 34.0184C16.1555 33.2789 14.5509 34.1211 12.1694 37.0263C10.9199 38.5447 9.68103 40.05 8.42617 41.55C7.67593 42.4474 7.85482 43.8316 8.86671 44.4316C10.482 45.3868 12.4524 45.9 14.6791 45.9H37.0556C38.3184 45.9 39.584 45.7342 40.7908 45.3553C43.5087 44.5026 45.666 42.55 46.7927 39.9711C47.7432 37.8026 48.2051 35.1711 47.316 32.9816C47.0196 32.2553 46.5764 31.5789 45.9543 30.9842C44.323 29.4289 42.7985 27.9763 40.9857 26.9026ZM17.2551 10.2C13.5947 10.2 10.6204 13.0604 10.6204 16.575C10.6204 20.0896 13.5947 22.95 17.2551 22.95C20.9129 22.95 23.8898 20.0896 23.8898 16.575C23.8898 13.0604 20.9129 10.2 17.2551 10.2Z" fill="#33B6FF"/>
</svg>
