<svg width="68" height="73" viewBox="0 0 68 73" fill="none" xmlns="http://www.w3.org/2000/svg">
<path d="M41.166 55.2942C55.986 55.2942 68 42.9162 68 27.6471C68 12.378 55.986 0 41.166 0C26.346 0 14.332 12.378 14.332 27.6471C14.332 42.9162 26.346 55.2942 41.166 55.2942Z" fill="#33B6FF"/>
<path d="M14.2924 63.5398L14.2924 46.0785L14.2924 28.6172L41.1793 55.2942L38.7834 55.2942L33.9916 55.2942L30.5845 55.2942L26.7511 56.2643L23.876 57.2344L20.7942 58.6847L18.3184 60.3554L14.2924 63.5398Z" fill="#33B6FF"/>
<path d="M57.5014 30.0723C57.5014 38.6441 50.2072 45.5934 41.2093 45.5934C32.2114 45.5934 24.9172 38.6441 24.9172 30.0723C24.9172 30.0723 32.2114 30.0723 41.2093 30.0723C50.2072 30.0723 57.5014 30.0723 57.5014 30.0723Z" fill="white"/>
<path d="M57.5014 30.0723C57.5014 38.6441 50.2072 45.5934 41.2093 45.5934C32.2114 45.5934 24.9172 38.6441 24.9172 30.0723C24.9172 30.0723 32.2114 30.0723 41.2093 30.0723C50.2072 30.0723 57.5014 30.0723 57.5014 30.0723Z" fill="white"/>
<path d="M39 24.5C39 23.3838 38.8319 22.2785 38.5052 21.2472C38.1786 20.2159 37.6998 19.2789 37.0962 18.4896C36.4926 17.7003 35.7761 17.0742 34.9874 16.647C34.1988 16.2199 33.3536 16 32.5 16C31.6464 16 30.8012 16.2199 30.0126 16.647C29.2239 17.0742 28.5074 17.7003 27.9038 18.4896C27.3002 19.2789 26.8214 20.2159 26.4948 21.2472C26.1681 22.2785 26 23.3838 26 24.5H27.9989C27.9989 23.727 28.1153 22.9616 28.3415 22.2475C28.5677 21.5334 28.8993 20.8845 29.3172 20.3379C29.7352 19.7913 30.2314 19.3578 30.7775 19.062C31.3236 18.7662 31.9089 18.6139 32.5 18.6139C33.0911 18.6139 33.6764 18.7662 34.2225 19.062C34.7686 19.3578 35.2648 19.7913 35.6828 20.3379C36.1007 20.8845 36.4323 21.5334 36.6585 22.2475C36.8847 22.9616 37.0011 23.727 37.0011 24.5H39Z" fill="white"/>
<path d="M56 24.5C56 23.3838 55.8319 22.2785 55.5052 21.2472C55.1786 20.2159 54.6998 19.2789 54.0962 18.4896C53.4926 17.7003 52.7761 17.0742 51.9874 16.647C51.1988 16.2199 50.3536 16 49.5 16C48.6464 16 47.8012 16.2199 47.0126 16.647C46.2239 17.0742 45.5074 17.7003 44.9038 18.4896C44.3002 19.2789 43.8214 20.2159 43.4948 21.2472C43.1681 22.2785 43 23.3838 43 24.5H44.9989C44.9989 23.727 45.1153 22.9616 45.3415 22.2475C45.5677 21.5334 45.8993 20.8845 46.3172 20.3379C46.7352 19.7913 47.2314 19.3578 47.7775 19.062C48.3236 18.7662 48.9089 18.6139 49.5 18.6139C50.0911 18.6139 50.6764 18.7662 51.2225 19.062C51.7686 19.3578 52.2648 19.7913 52.6828 20.3379C53.1007 20.8845 53.4323 21.5334 53.6585 22.2475C53.8847 22.9616 54.0011 23.727 54.0011 24.5H56Z" fill="white"/>
</svg>
