<svg width="199" height="40" viewBox="0 0 199 40" fill="none" xmlns="http://www.w3.org/2000/svg">
<path d="M0.72 30V1.6H12.84C14.2 1.6 15.44 1.88 16.56 2.44C17.7067 2.97333 18.6933 3.70667 19.52 4.64C20.3467 5.54667 20.9867 6.57333 21.44 7.72C21.8933 8.86667 22.12 10.04 22.12 11.24C22.12 12.8667 21.7333 14.4133 20.96 15.88C20.2133 17.3467 19.16 18.5467 17.8 19.48C16.4667 20.3867 14.88 20.84 13.04 20.84H7.28V30H0.72ZM7.28 15.12H12.64C13.1467 15.12 13.6133 14.9733 14.04 14.68C14.4667 14.3867 14.8133 13.9467 15.08 13.36C15.3467 12.7733 15.48 12.0533 15.48 11.2C15.48 10.32 15.32 9.6 15 9.04C14.7067 8.45333 14.32 8.02667 13.84 7.76C13.3867 7.49333 12.9067 7.36 12.4 7.36H7.28V15.12ZM24.9219 22.44V9H31.3219V21.04C31.3219 22.32 31.5752 23.3067 32.0819 24C32.5885 24.6667 33.3085 25 34.2419 25C34.8285 25 35.3885 24.9067 35.9219 24.72C36.4552 24.5067 36.9752 24.1733 37.4819 23.72C37.9885 23.2667 38.4419 22.68 38.8419 21.96V9H45.2419V22.88C45.2419 23.52 45.3352 23.9733 45.5219 24.24C45.7352 24.48 46.0952 24.6267 46.6019 24.68V30C46.0152 30.1067 45.4952 30.1867 45.0419 30.24C44.6152 30.2933 44.2285 30.32 43.8819 30.32C42.7619 30.32 41.8685 30.0933 41.2019 29.64C40.5352 29.16 40.1219 28.4933 39.9619 27.64L39.8419 26.36C38.8819 27.7467 37.6819 28.7733 36.2419 29.44C34.8285 30.08 33.2419 30.4 31.4819 30.4C29.3485 30.4 27.7219 29.72 26.6019 28.36C25.4819 27 24.9219 25.0267 24.9219 22.44ZM70.44 30H64.04V18.2C64.04 16.8133 63.7733 15.8133 63.24 15.2C62.7333 14.56 62.0533 14.24 61.2 14.24C60.6133 14.24 60.0133 14.4 59.4 14.72C58.7867 15.04 58.2267 15.48 57.72 16.04C57.24 16.6 56.8667 17.24 56.6 17.96V30H50.2V9H55.96V12.52C56.4933 11.6933 57.16 10.9867 57.96 10.4C58.76 9.81333 59.68 9.37333 60.72 9.08C61.76 8.76 62.8933 8.6 64.12 8.6C65.48 8.6 66.5733 8.85333 67.4 9.36C68.2533 9.84 68.8933 10.48 69.32 11.28C69.7733 12.08 70.0667 12.9467 70.2 13.88C70.36 14.7867 70.44 15.68 70.44 16.56V30ZM94.9322 30H88.5322V18.2C88.5322 16.8133 88.2655 15.8133 87.7322 15.2C87.2255 14.56 86.5455 14.24 85.6922 14.24C85.1055 14.24 84.5055 14.4 83.8922 14.72C83.2789 15.04 82.7189 15.48 82.2122 16.04C81.7322 16.6 81.3589 17.24 81.0922 17.96V30H74.6922V9H80.4522V12.52C80.9855 11.6933 81.6522 10.9867 82.4522 10.4C83.2522 9.81333 84.1722 9.37333 85.2122 9.08C86.2522 8.76 87.3855 8.6 88.6122 8.6C89.9722 8.6 91.0655 8.85333 91.8922 9.36C92.7455 9.84 93.3855 10.48 93.8122 11.28C94.2655 12.08 94.5589 12.9467 94.6922 13.88C94.8522 14.7867 94.9322 15.68 94.9322 16.56V30ZM98.9928 33.16C99.5261 33.32 100.019 33.44 100.473 33.52C100.953 33.6267 101.379 33.68 101.753 33.68C102.259 33.68 102.686 33.56 103.033 33.32C103.406 33.1067 103.726 32.72 103.993 32.16C104.259 31.6267 104.499 30.9067 104.713 30L96.7128 9H103.313L108.193 23.44L112.353 9H118.393L110.393 33.4C110.019 34.5467 109.446 35.56 108.673 36.44C107.899 37.32 106.966 38 105.873 38.48C104.779 38.9867 103.579 39.24 102.273 39.24C101.713 39.24 101.166 39.1867 100.633 39.08C100.099 39 99.5528 38.8533 98.9928 38.64V33.16ZM121.423 30V1.6H133.543C134.903 1.6 136.143 1.88 137.263 2.44C138.41 2.97333 139.396 3.70667 140.223 4.64C141.05 5.54667 141.69 6.57333 142.143 7.72C142.596 8.86667 142.823 10.04 142.823 11.24C142.823 12.8667 142.436 14.4133 141.663 15.88C140.916 17.3467 139.863 18.5467 138.503 19.48C137.17 20.3867 135.583 20.84 133.743 20.84H127.983V30H121.423ZM127.983 15.12H133.343C133.85 15.12 134.316 14.9733 134.743 14.68C135.17 14.3867 135.516 13.9467 135.783 13.36C136.05 12.7733 136.183 12.0533 136.183 11.2C136.183 10.32 136.023 9.6 135.703 9.04C135.41 8.45333 135.023 8.02667 134.543 7.76C134.09 7.49333 133.61 7.36 133.103 7.36H127.983V15.12ZM144.232 23.72C144.232 22.3333 144.618 21.12 145.392 20.08C146.165 19.04 147.232 18.2267 148.592 17.64C149.952 17.0267 151.512 16.72 153.272 16.72C154.125 16.72 154.965 16.8 155.792 16.96C156.618 17.0933 157.338 17.2933 157.952 17.56V16.64C157.952 15.4933 157.605 14.6133 156.912 14C156.218 13.3867 155.165 13.08 153.752 13.08C152.578 13.08 151.472 13.28 150.432 13.68C149.418 14.08 148.338 14.6533 147.192 15.4L145.272 11.32C146.658 10.4133 148.098 9.73333 149.592 9.28C151.112 8.82667 152.712 8.6 154.392 8.6C157.538 8.6 159.978 9.36 161.712 10.88C163.472 12.3733 164.352 14.5467 164.352 17.4V22.88C164.352 23.52 164.445 23.9733 164.632 24.24C164.845 24.48 165.205 24.6267 165.712 24.68V30C165.178 30.1067 164.672 30.1867 164.192 30.24C163.738 30.2933 163.338 30.32 162.992 30.32C161.792 30.32 160.872 30.08 160.232 29.6C159.618 29.12 159.232 28.4667 159.072 27.64L158.952 26.72C158.018 27.92 156.898 28.84 155.592 29.48C154.312 30.0933 152.965 30.4 151.552 30.4C150.165 30.4 148.912 30.1067 147.792 29.52C146.698 28.9333 145.832 28.1333 145.192 27.12C144.552 26.1067 144.232 24.9733 144.232 23.72ZM156.952 24.52C157.245 24.28 157.485 24.0133 157.672 23.72C157.858 23.4267 157.952 23.1467 157.952 22.88V21C157.418 20.7867 156.818 20.6267 156.152 20.52C155.512 20.3867 154.912 20.32 154.352 20.32C153.178 20.32 152.205 20.5867 151.432 21.12C150.658 21.6267 150.272 22.3067 150.272 23.16C150.272 23.64 150.405 24.08 150.672 24.48C150.938 24.88 151.298 25.2 151.752 25.44C152.232 25.68 152.792 25.8 153.432 25.8C154.072 25.8 154.712 25.68 155.352 25.44C155.992 25.2 156.525 24.8933 156.952 24.52ZM168.909 0.799999H175.309V22.52C175.309 23.4 175.469 24.0267 175.789 24.4C176.109 24.7733 176.562 24.96 177.149 24.96C177.549 24.96 177.949 24.9067 178.349 24.8C178.776 24.6667 179.149 24.52 179.469 24.36L180.309 29.16C179.509 29.5333 178.589 29.8267 177.549 30.04C176.509 30.2533 175.536 30.36 174.629 30.36C172.816 30.36 171.402 29.88 170.389 28.92C169.402 27.9333 168.909 26.5467 168.909 24.76V0.799999ZM190.428 30.4C188.641 30.4 186.894 30.1067 185.188 29.52C183.481 28.9333 182.041 28.0667 180.868 26.92L183.068 22.88C184.348 23.8133 185.588 24.52 186.788 25C188.014 25.48 189.161 25.72 190.228 25.72C191.054 25.72 191.694 25.5867 192.148 25.32C192.601 25.0533 192.828 24.64 192.828 24.08C192.828 23.68 192.694 23.3733 192.428 23.16C192.161 22.92 191.748 22.7067 191.188 22.52C190.654 22.3333 189.988 22.1333 189.188 21.92C187.588 21.3867 186.254 20.8667 185.188 20.36C184.121 19.8533 183.321 19.24 182.788 18.52C182.254 17.7733 181.988 16.8133 181.988 15.64C181.988 14.2267 182.334 13 183.028 11.96C183.748 10.8933 184.761 10.0667 186.067 9.48C187.374 8.89333 188.934 8.6 190.747 8.6C192.188 8.6 193.588 8.82667 194.948 9.28C196.334 9.73333 197.628 10.4933 198.828 11.56L196.348 15.56C195.148 14.7333 194.081 14.1333 193.148 13.76C192.214 13.3867 191.308 13.2 190.428 13.2C189.974 13.2 189.561 13.2533 189.188 13.36C188.814 13.4667 188.508 13.6533 188.268 13.92C188.054 14.16 187.948 14.48 187.948 14.88C187.948 15.28 188.054 15.6 188.268 15.84C188.508 16.08 188.868 16.2933 189.348 16.48C189.854 16.64 190.481 16.84 191.228 17.08C192.961 17.5867 194.401 18.1067 195.548 18.64C196.694 19.1467 197.548 19.7867 198.108 20.56C198.694 21.3067 198.988 22.3067 198.988 23.56C198.988 25.6933 198.214 27.3733 196.668 28.6C195.148 29.8 193.068 30.4 190.428 30.4Z" fill="#33B6FF"/>
</svg>
