<svg width="50" height="45" viewBox="0 0 50 45" fill="none" xmlns="http://www.w3.org/2000/svg">
<path d="M0 5.88509C0 4.32426 0.65848 2.82737 1.83058 1.7237C3.00269 0.620034 4.5924 0 6.25 0L43.75 0C45.4076 0 46.9973 0.620034 48.1694 1.7237C49.3415 2.82737 50 4.32426 50 5.88509V29.4254C50 30.9863 49.3415 32.4831 48.1694 33.5868C46.9973 34.6905 45.4076 35.3105 43.75 35.3105H13.7937C12.965 35.3107 12.1703 35.6208 11.5844 36.1727L2.66875 44.5678C2.45041 44.7739 2.17203 44.9144 1.86886 44.9714C1.56569 45.0285 1.25135 44.9996 0.965623 44.8884C0.679897 44.7772 0.435631 44.5887 0.263741 44.3467C0.0918518 44.1047 6.56715e-05 43.8202 0 43.529L0 5.88509ZM15.625 17.6553C15.625 16.8748 15.2958 16.1264 14.7097 15.5746C14.1237 15.0227 13.3288 14.7127 12.5 14.7127C11.6712 14.7127 10.8763 15.0227 10.2903 15.5746C9.70424 16.1264 9.375 16.8748 9.375 17.6553C9.375 18.4357 9.70424 19.1841 10.2903 19.736C10.8763 20.2878 11.6712 20.5978 12.5 20.5978C13.3288 20.5978 14.1237 20.2878 14.7097 19.736C15.2958 19.1841 15.625 18.4357 15.625 17.6553ZM28.125 17.6553C28.125 16.8748 27.7958 16.1264 27.2097 15.5746C26.6237 15.0227 25.8288 14.7127 25 14.7127C24.1712 14.7127 23.3763 15.0227 22.7903 15.5746C22.2042 16.1264 21.875 16.8748 21.875 17.6553C21.875 18.4357 22.2042 19.1841 22.7903 19.736C23.3763 20.2878 24.1712 20.5978 25 20.5978C25.8288 20.5978 26.6237 20.2878 27.2097 19.736C27.7958 19.1841 28.125 18.4357 28.125 17.6553ZM37.5 20.5978C38.3288 20.5978 39.1237 20.2878 39.7097 19.736C40.2958 19.1841 40.625 18.4357 40.625 17.6553C40.625 16.8748 40.2958 16.1264 39.7097 15.5746C39.1237 15.0227 38.3288 14.7127 37.5 14.7127C36.6712 14.7127 35.8763 15.0227 35.2903 15.5746C34.7042 16.1264 34.375 16.8748 34.375 17.6553C34.375 18.4357 34.7042 19.1841 35.2903 19.736C35.8763 20.2878 36.6712 20.5978 37.5 20.5978Z" fill="#5C8AFF"/>
</svg>
