<svg width="50" height="49" viewBox="0 0 50 49" fill="none" xmlns="http://www.w3.org/2000/svg">
<path d="M18.4 34.25L22.25 30.3906L16.2688 24.5L22.25 18.6094L18.4 14.75L8.5 24.5L18.4 34.25ZM31.6 34.25L41.5 24.5L31.6 14.75L27.75 18.6094L33.7313 24.5L27.75 30.3906L31.6 34.25ZM5.75 48.875C4.2375 48.875 2.94225 48.3442 1.86425 47.2825C0.786254 46.2208 0.248171 44.9461 0.250005 43.4583V5.54167C0.250005 4.05209 0.789005 2.77646 1.867 1.7148C2.945 0.653129 4.23934 0.123199 5.75 0.125005H44.25C45.7625 0.125005 47.0578 0.655838 48.1358 1.7175C49.2138 2.77917 49.7518 4.05389 49.75 5.54167V43.4583C49.75 44.9479 49.211 46.2235 48.133 47.2852C47.055 48.3469 45.7607 48.8768 44.25 48.875H5.75Z" fill="#1B398D"/>
</svg>
