<svg width="51" height="42" viewBox="0 0 51 42" fill="none" xmlns="http://www.w3.org/2000/svg">
<path d="M27.0938 5.7408C29.1784 3.53247 32.7739 2.90106 37.0133 3.33054C40.9466 3.72798 44.9916 5.00683 47.8125 6.19273V37.9972C44.8864 36.8754 41.0964 35.7793 37.3352 35.4011C33.8481 35.0453 30.0741 35.2761 27.0938 36.978V5.7408ZM25.5 2.84336C22.3603 0.128618 17.8086 -0.275228 13.6648 0.141439C8.83894 0.631824 3.96844 2.29529 0.933937 3.68311C0.655506 3.81044 0.419396 4.01565 0.253792 4.27424C0.0881876 4.53283 8.46964e-05 4.83388 0 5.14144L0 40.3979C7.38288e-05 40.666 0.0670559 40.9298 0.194811 41.1652C0.322566 41.4006 0.507009 41.5999 0.731247 41.745C0.955485 41.8902 1.21235 41.9764 1.47831 41.9958C1.74427 42.0152 2.01083 41.9672 2.25356 41.8562C5.06494 40.5742 9.59438 39.0325 13.9836 38.587C18.4748 38.1319 22.2392 38.8658 24.2569 41.3979C24.4062 41.585 24.5954 41.7361 24.8106 41.8399C25.0258 41.9437 25.2614 41.9976 25.5 41.9976C25.7386 41.9976 25.9742 41.9437 26.1894 41.8399C26.4046 41.7361 26.5938 41.585 26.7431 41.3979C28.7608 38.8658 32.5253 38.1319 37.0133 38.587C41.4056 39.0325 45.9382 40.5742 48.7464 41.8562C48.9892 41.9672 49.2557 42.0152 49.5217 41.9958C49.7877 41.9764 50.0445 41.8902 50.2687 41.745C50.493 41.5999 50.6774 41.4006 50.8052 41.1652C50.9329 40.9298 50.9999 40.666 51 40.3979V5.14144C50.9999 4.83388 50.9118 4.53283 50.7462 4.27424C50.5806 4.01565 50.3445 3.81044 50.0661 3.68311C47.0316 2.29529 42.1611 0.631824 37.3352 0.141439C33.1914 -0.278433 28.6397 0.128618 25.5 2.84336Z" fill="#6A5CFF"/>
</svg>
